<svg xmlns="http://www.w3.org/2000/svg" height="40" viewBox="0 96 960 960" width="40"><path d="M788.667 929.5 532.021 672.833Q502.5 698.5 463.027 712.25 423.555 726 379.991 726q-106.551 0-180.354-73.803-73.804-73.802-73.804-178.833 0-105.031 73.621-178.864 73.62-73.833 179.166-73.833 105.547 0 179.047 73.842t73.5 179.03q0 42.461-13.834 81.878-13.833 39.416-40 72.427L834.667 883.5l-46 46Zm-409.5-266.833q78.666 0 133.666-55.289 55.001-55.29 55.001-134.084 0-78.794-55.001-134.044Q457.833 284 379 284q-79.389 0-134.611 55.289-55.223 55.289-55.223 134.083 0 78.795 55.25 134.045 55.25 55.25 134.751 55.25Z"/></svg>